<?xml version="1.0" standalone="no"?>
<!DOCTYPE svg PUBLIC "-//W3C//DTD SVG 20010904//EN"
 "http://www.w3.org/TR/2001/REC-SVG-20010904/DTD/svg10.dtd">
<svg version="1.0" xmlns="http://www.w3.org/2000/svg"
 width="256.000000pt" height="256.000000pt" viewBox="0 0 256.000000 256.000000"
 preserveAspectRatio="xMidYMid meet">

<g transform="translate(0.000000,256.000000) scale(0.100000,-0.100000)"
fill="#000000" stroke="none">
<path d="M660 2547 c-48 -15 -126 -95 -139 -143 -25 -89 -6 -161 58 -225 25
-25 51 -48 58 -50 9 -3 4 -28 -17 -89 -64 -187 -58 -378 18 -527 l21 -40 -85
-67 c-46 -37 -84 -73 -84 -81 0 -15 26 -45 39 -45 4 0 45 29 90 65 46 36 86
65 90 65 4 0 20 -14 36 -30 l29 -30 -36 -38 c-94 -99 -184 -283 -218 -445
l-11 -54 -55 -7 c-31 -3 -71 -13 -90 -21 l-35 -14 -15 34 c-8 19 -14 60 -14
91 0 70 46 171 114 254 26 30 46 60 46 66 0 18 -27 36 -47 32 -27 -5 -110
-114 -151 -198 -32 -67 -36 -84 -37 -155 0 -63 5 -90 23 -126 l22 -46 -26 -47
c-46 -82 -44 -186 8 -361 43 -148 112 -256 189 -295 59 -30 210 -25 459 15 86
14 104 14 184 0 113 -19 279 -19 392 0 80 14 98 14 184 0 247 -40 401 -45 458
-16 77 40 134 126 182 271 32 97 29 130 -9 130 -26 0 -34 -13 -65 -112 -92
-288 -246 -305 -345 -38 -117 314 -61 463 172 462 63 0 88 -5 125 -24 51 -26
92 -84 92 -130 0 -66 39 -101 70 -63 18 22 4 112 -26 164 l-24 44 20 43 c49
100 30 228 -51 354 -51 79 -189 222 -286 297 l-72 55 20 41 c78 152 84 333 19
527 -19 58 -24 86 -17 89 7 2 33 25 58 50 93 92 93 218 1 310 -98 98 -233 94
-325 -9 l-44 -49 -62 25 c-34 14 -92 32 -129 39 -132 28 -282 14 -413 -39
l-62 -25 -44 49 c-64 72 -152 96 -243 67z m162 -92 c60 -41 59 -59 -9 -124
-32 -31 -74 -75 -93 -99 l-35 -43 -32 20 c-88 55 -86 193 3 252 43 28 120 26
166 -6z m1080 8 c91 -54 94 -199 5 -254 l-32 -20 -35 43 c-19 24 -61 68 -93
99 -68 65 -69 83 -9 124 45 31 119 34 164 8z m-487 -44 c33 -6 96 -28 140 -49
175 -84 299 -246 339 -443 59 -282 -47 -493 -291 -579 -179 -63 -467 -63 -646
0 -215 76 -320 242 -304 480 22 331 262 579 587 605 44 3 99 -1 175 -14z m491
-1046 c151 -114 264 -237 320 -347 38 -78 46 -159 19 -222 l-14 -35 -37 16
c-20 8 -61 18 -90 21 l-53 7 -11 51 c-18 85 -50 174 -66 180 -19 7 -41 -2 -48
-20 -3 -9 3 -42 14 -75 11 -33 23 -79 26 -102 l6 -42 -44 -12 c-169 -45 -221
-209 -146 -462 l22 -73 -25 -19 c-121 -96 -373 -160 -569 -144 -158 13 -342
75 -429 144 l-25 19 22 73 c46 157 47 261 2 349 -24 48 -89 97 -147 113 -51
13 -52 20 -23 122 27 94 97 236 153 311 70 92 66 90 145 60 111 -43 212 -59
372 -59 161 0 261 16 374 60 l70 26 38 -44 c22 -24 55 -70 75 -102 31 -49 40
-58 62 -55 40 5 39 40 -3 104 -20 30 -53 73 -73 95 l-36 40 28 29 c16 17 32
30 35 30 4 0 29 -17 56 -37z m-1276 -660 c103 -42 132 -143 90 -309 -55 -214
-125 -324 -206 -324 -19 0 -46 7 -59 16 -74 48 -165 288 -166 436 -1 114 52
180 159 198 57 9 135 2 182 -17z m163 -572 c32 -18 56 -35 55 -37 -5 -5 -171
-24 -175 -20 -5 5 51 97 57 94 3 -2 31 -18 63 -37z m1070 -7 c15 -26 26 -48
24 -50 -4 -4 -169 15 -174 20 -3 3 106 73 117 75 3 1 18 -20 33 -45z"/>
<path d="M882 1958 c-20 -20 -15 -76 7 -88 62 -33 124 36 75 84 -18 19 -65 21
-82 4z"/>
<path d="M1596 1954 c-49 -48 13 -117 75 -84 22 12 27 68 7 88 -17 17 -64 15
-82 -4z"/>
<path d="M1195 1926 c-53 -15 -85 -45 -85 -80 0 -42 43 -110 85 -133 l40 -22
5 -77 c5 -84 22 -110 58 -88 13 9 18 28 20 88 l3 76 40 20 c64 33 105 121 79
170 -25 47 -154 71 -245 46z m153 -72 c54 -15 -2 -89 -68 -89 -62 0 -124 75
-72 88 26 7 114 7 140 1z"/>
</g>
</svg>
